<svg width="24" height="24" class="hidden">
  <symbol xmlns="http://www.w3.org/2000/svg" viewBox="0 0 24 24" id="icon-all-books">
    <path  d="M19 2L14 6.5V17.5L19 13V2ZM6.5 5C4.55 5 2.45 5.4 1 6.5V21.16C1 21.41 1.25 21.66 1.5 21.66C1.6 21.66 1.65 21.59 1.75 21.59C3.1 20.94 5.05 20.5 6.5 20.5C8.45 20.5 10.55 20.9 12 22C13.35 21.15 15.8 20.5 17.5 20.5C19.15 20.5 20.85 20.81 22.25 21.56C22.35 21.61 22.4 21.59 22.5 21.59C22.75 21.59 23 21.34 23 21.09V6.5C22.4 6.05 21.75 5.75 21 5.5V19C19.9 18.65 18.7 18.5 17.5 18.5C15.8 18.5 13.35 19.15 12 20V6.5C10.55 5.4 8.45 5 6.5 5Z" fill="#403F3F"></path>
  </symbol>
  <symbol xmlns="http://www.w3.org/2000/svg" viewBox="0 0 24 24" id="icon-saved">
    <path  d="M17 3H7C6.46957 3 5.96086 3.21071 5.58579 3.58579C5.21071 3.96086 5 4.46957 5 5V21L12 18L19 21V5C19 3.89 18.1 3 17 3Z" fill="#403F3F"></path>
  </symbol>
  <symbol xmlns="http://www.w3.org/2000/svg" viewBox="0 0 24 24" id="icon-edit-profile">
    <path  d="M21.7 13.35L20.7 14.35L18.65 12.3L19.65 11.3C19.86 11.09 20.21 11.09 20.42 11.3L21.7 12.58C21.91 12.79 21.91 13.14 21.7 13.35ZM12 18.94L18.06 12.88L20.11 14.93L14.06 21H12V18.94ZM12 14C7.58 14 4 15.79 4 18V20H10V18.11L14 14.11C13.34 14.03 12.67 14 12 14ZM12 4C10.9391 4 9.92172 4.42143 9.17157 5.17157C8.42143 5.92172 8 6.93913 8 8C8 9.06087 8.42143 10.0783 9.17157 10.8284C9.92172 11.5786 10.9391 12 12 12C13.0609 12 14.0783 11.5786 14.8284 10.8284C15.5786 10.0783 16 9.06087 16 8C16 6.93913 15.5786 5.92172 14.8284 5.17157C14.0783 4.42143 13.0609 4 12 4Z" fill="#403F3F"></path>
  </symbol>
  <symbol xmlns="http://www.w3.org/2000/svg" viewBox="0 0 24 24" id="icon-cloud-connect">
    <path  d="M13 17.5C13 18.39 13.18 19.23 13.5 20H6.5C5 20 3.69 19.5 2.61 18.43C1.54 17.38 1 16.09 1 14.58C1 13.28 1.39 12.12 2.17 11.1C2.95 10.08 4 9.43 5.25 9.15C5.67 7.62 6.5 6.38 7.75 5.43C9 4.48 10.42 4 12 4C13.95 4 15.6 4.68 16.96 6.04C18.32 7.4 19 9.05 19 11C19.04 11 19.07 11 19.1 11C15.7 11.23 13 14.05 13 17.5ZM19 13.5V12L16.75 14.25L19 16.5V15C20.38 15 21.5 16.12 21.5 17.5C21.5 17.9 21.41 18.28 21.24 18.62L22.33 19.71C22.75 19.08 23 18.32 23 17.5C23 15.29 21.21 13.5 19 13.5ZM19 20C17.62 20 16.5 18.88 16.5 17.5C16.5 17.1 16.59 16.72 16.76 16.38L15.67 15.29C15.25 15.92 15 16.68 15 17.5C15 19.71 16.79 21.5 19 21.5V23L21.25 20.75L19 18.5V20Z" fill="#403F3F"></path>
  </symbol>
</svg>


