<svg width="92" height="20" viewBox="0 0 92 20" fill="none" xmlns="http://www.w3.org/2000/svg">
<path d="M10.793 6.36191C10.7432 5.72698 10.5098 5.23175 10.0928 4.87619C9.68199 4.52063 9.05644 4.34286 8.21615 4.34286C7.68086 4.34286 7.24204 4.40952 6.8997 4.54286C6.56359 4.66984 6.31461 4.84444 6.15278 5.06667C5.99095 5.28889 5.90692 5.54286 5.90069 5.82857C5.88824 6.06349 5.9287 6.27619 6.02207 6.46667C6.12166 6.65079 6.27727 6.81905 6.48889 6.97143C6.70052 7.11746 6.97128 7.25079 7.30117 7.37143C7.63106 7.49206 8.0232 7.6 8.47758 7.69524L10.0461 8.0381C11.1043 8.26667 12.0099 8.56825 12.763 8.94286C13.5162 9.31746 14.1324 9.75873 14.6117 10.2667C15.091 10.7683 15.4426 11.3333 15.6667 11.9619C15.897 12.5905 16.0153 13.2762 16.0215 14.019C16.0153 15.3016 15.7009 16.3873 15.0785 17.2762C14.4561 18.1651 13.566 18.8413 12.4083 19.3048C11.2568 19.7683 9.87183 20 8.2535 20C6.5916 20 5.14132 19.7492 3.90267 19.2476C2.67025 18.746 1.7117 17.9746 1.02702 16.9333C0.348564 15.8857 0.00622435 14.546 0 12.9143H4.92969C4.96081 13.5111 5.10709 14.0127 5.36851 14.419C5.62993 14.8254 5.99717 15.1333 6.47022 15.3429C6.9495 15.5524 7.51902 15.6571 8.17881 15.6571C8.73277 15.6571 9.19649 15.5873 9.56995 15.4476C9.94341 15.3079 10.2266 15.1143 10.4196 14.8667C10.6125 14.619 10.7121 14.3365 10.7183 14.019C10.7121 13.7206 10.6156 13.4603 10.4289 13.2381C10.2484 13.0095 9.94964 12.8063 9.5326 12.6286C9.11557 12.4444 8.55227 12.273 7.84269 12.1143L5.93804 11.6952C4.24501 11.3206 2.90989 10.6952 1.93266 9.81905C0.961663 8.93651 0.479276 7.73333 0.4855 6.20952C0.479276 4.97143 0.802942 3.88889 1.4565 2.96191C2.11628 2.02857 3.02815 1.30159 4.19211 0.780952C5.36228 0.260317 6.70363 0 8.21615 0C9.75979 0 11.0949 0.263492 12.2215 0.790476C13.3481 1.31746 14.2164 2.06032 14.8264 3.01905C15.4426 3.97143 15.7539 5.08571 15.7601 6.36191H10.793Z" fill="#403F3F"/>
<path d="M20.3624 19.7714V0.266667H25.5535V7.88571H32.4252V0.266667H37.6163V19.7714H32.4252V12.1524H25.5535V19.7714H20.3624Z" fill="#403F3F"/>
<path d="M42.4474 19.7714V0.266667H56.2282V4.53333H47.6386V7.88571H55.5186V12.1524H47.6386V15.5048H56.1908V19.7714H42.4474Z" fill="#403F3F"/>
<path d="M61.169 19.7714V0.266667H66.3601V15.5048H74.0907V19.7714H61.169Z" fill="#403F3F"/>
<path d="M78.5554 19.7714V0.266667H92V4.53333H83.7465V7.88571H91.1784V12.1524H83.7465V19.7714H78.5554Z" fill="#403F3F"/>
<path d="M91.274 16.9778C91.274 18.5207 90.0478 19.7714 88.5353 19.7714C87.0227 19.7714 85.7966 18.5207 85.7966 16.9778C85.7966 15.4349 87.0227 14.1841 88.5353 14.1841C90.0478 14.1841 91.274 15.4349 91.274 16.9778Z" fill="#E46505"/>
</svg>
